PathFileType	4	(X/Y/Z)	C:/Users/beibeiliu/ov580/test_trc/User3\sequence.33_training_dense_left.trc
DataRate	CameraRate	NumFrames	NumMarkers	Units	OrigDataRate	OrigDataStartFrame	OrigNumFrames
120	120	9	19	mm	120	1	59
Frame#	Time	ThumbCMC			ThumbMCP			ThumbIP			ThumbTip			IndexMCP			IndexPIP			IndexTip			MiddleMCP			MiddlePIP			MiddleTip			RingMCP			RingPIP			RingTip			PinkyMCP			PinkyPIP			PinkyTip			BackHand1			BackHand2			BackHand3	
		X0	Y0	Z0	X1	Y1	Z1	X2	Y2	Z2	X3	Y3	Z3	X4	Y4	Z4	X5	Y5	Z5	X6	Y6	Z6	X7	Y7	Z7	X8	Y8	Z8	X9	Y9	Z9	X10	Y10	Z10	X11	Y11	Z11	X12	Y12	Z12	X13	Y13	Z13	X14	Y14	Z14	X15	Y15	Z15	X16	Y16	Z16	X17	Y17	Z17	X18	Y18	Z18	
0	0	-118.237	-2.26678	10.4624	-101.035	-12.1204	-10.5005	-81.3176	-19.039	-32.9577	-70.9722	-28.5152	-55.1726	-142.104	10.4198	-64.8598	-135.424	8.49459	-92.3775	-132.344	-1.82662	-122.692	-166.277	11.9289	-70.5443	-169.077	7.77853	-100.505	-172.124	-8.96327	-129.65	-184.57	6.02432	-63.3052	-190.259	3.36744	-85.9496	-196.374	-9.50114	-111.064	-205.563	-3.31762	-45.1678	-211.526	-7.3414	-63.8161	-214.362	-15.6156	-88.2732	-181.172	17.6484	-13.4354	-180.111	19.6828	21.3109	-148.655	20.3403	-0.816908	
1	0.00833333	-121.379	-3.95735	7.60885	-100.994	-11.9036	-12.2268	-87.4271	-20.5052	-34.6772	-72.997	-30.1866	-55.3228	-144.623	8.45859	-67.3391	-139.111	5.77847	-97.5655	-136.12	-5.727	-123.987	-168.291	8.98577	-74.0072	-170.415	4.6897	-99.1773	-174.409	-14.4201	-129.857	-190.88	2.43987	-61.7201	-191.396	-1.60988	-87.1832	-197.93	-16.509	-116.309	-204.133	-8.08569	-42.4931	-213.73	-13.4126	-69.8856	-218.106	-21.1521	-88.3131	-185.323	13.1561	-10.3263	-181.909	17.6187	17.6133	-150.38	17.3937	-3.40406	
2	0.0166667	-124.537	-4.35393	9.56616	-105.622	-11.7266	-9.57387	-85.2056	-19.3363	-36.624	-76.4936	-27.8385	-50.8768	-141.984	8.66559	-71.0063	-141.228	5.5544	-95.4381	-133.239	-4.05745	-120.195	-172.751	7.69264	-70.9464	-172.478	2.04495	-100.803	-171.113	-16.3562	-129.079	-187.569	0.311762	-61.138	-193.26	-6.32846	-92.3635	-197.991	-21.1818	-115.931	-207.264	-10.9161	-45.361	-213.852	-18.3933	-69.694	-214.174	-29.7814	-89.5665	-189.683	10.8965	-11.4852	-185.494	12.8706	16.7949	-155.749	16.0661	-0.371423	
3	0.025	-125.244	-0.134317	7.14083	-109.038	-7.63179	-10.7834	-88.913	-12.3458	-32.4178	-75.9376	-19.0723	-46.7275	-146.438	11.2697	-68.669	-137.075	9.41799	-96.7338	-136.345	-1.39153	-116.99	-171.036	7.54958	-69.2748	-170.443	0.537613	-102.551	-166.308	-19.7417	-127.956	-186.963	-1.95162	-64.3747	-190.142	-9.62297	-92.4205	-187.698	-23.2666	-113.103	-201.296	-16.8616	-46.2515	-205.159	-23.0335	-72.6933	-205.53	-37.2788	-93.1086	-192.063	5.80078	-14.7243	-195.271	7.12384	15.8012	-160.463	16.7896	-1.65341	
4	0.0333333	-133.258	5.16916	14.7199	-109.928	3.77403	-8.19463	-88.1723	3.54315	-26.1853	-73.6621	-0.635395	-44.0773	-145.529	18.3782	-61.594	-138.122	16.9432	-88.2408	-126.023	7.60595	-111.661	-167.189	9.65278	-73.0182	-158.874	0.105862	-101.99	-147.29	-18.1927	-122.266	-185.479	-9.3903	-63.6596	-177.416	-14.8054	-93.7427	-167.705	-34.3937	-112.987	-197.625	-27.9298	-50.8622	-190.753	-32.2473	-72.5697	-183.309	-48.5319	-92.928	-195.389	-0.293328	-13.8591	-194.828	1.53282	14.7011	-167.446	15.9145	1.20517	
5	0.0416667	-138.981	14.6191	11.6021	-117.86	18.0529	-7.42092	-98.1519	22.762	-31.1148	-81.826	22.3392	-47.5677	-153.03	20.481	-60.1486	-143.27	14.7506	-91.1022	-126.072	9.88026	-108.228	-170.562	0.429148	-71.8232	-156.174	-3.01822	-98.3741	-133.136	-22.8673	-114.447	-179.737	-20.3787	-63.2928	-167.165	-27.4912	-91.4912	-148.267	-41.6595	-104.218	-184.084	-38.9734	-49.5766	-175.25	-44.3257	-69.8411	-156.361	-58.7353	-85.3242	-192.91	-11.3344	-9.59788	-196.505	-14.0458	17.3013	-173.611	14.5924	3.62537	
6	0.05	-149.268	20.2999	9.46416	-130.543	28.5732	-12.8222	-115.657	32.6868	-33.5786	-103.572	34.3759	-54.9392	-166.784	8.59509	-67.118	-153.611	11.2764	-89.3587	-130.953	3.33694	-105.886	-174.665	-13.2943	-72.3566	-158.3	-12.5397	-95.8226	-121.993	-24.0803	-105.735	-174.956	-30.4709	-59.5147	-159.747	-38.7518	-86.2991	-127.671	-44.1766	-95.9993	-172.804	-55.7222	-47.0872	-156.489	-59.882	-69.7647	-133.497	-63.4596	-78.2942	-189.277	-26.3402	-7.30137	-193.098	-30.3989	21.4749	-185.07	2.42308	4.91099	
7	0.0583333	-161.82	14.1823	11.2533	-147.853	24.6679	-15.0201	-137.918	34.8336	-44.8108	-127.145	37.4542	-64.1242	-178.576	-6.68251	-67.2308	-159.492	-3.69757	-93.4318	-134.968	-7.01611	-101.596	-177.876	-28.9385	-71.5427	-158.555	-28.0617	-94.1029	-117.052	-24.1322	-93.181	-173.219	-46.4538	-59.5904	-151.881	-53.6535	-82.3698	-121.801	-48.9648	-84.19	-163.877	-69.2493	-47.3138	-147.539	-69.0085	-64.2945	-117.815	-61.3425	-70.3508	-188.3	-48.2268	-4.55606	-188.542	-45.7678	22.442	-192.214	-10.344	4.57688	
8	0.0666667	-169.843	5.21864	7.54969	-162.245	16.1098	-19.7818	-156.846	23.7827	-45.9158	-150.109	27.8589	-71.4317	-185.182	-20.5217	-64.6363	-163.129	-17.2974	-92.5063	-132.727	-9.17978	-93.1982	-180.844	-41.8438	-67.0783	-153.985	-40.8266	-91.401	-120.156	-30.2411	-82.292	-170.513	-60.5647	-59.2236	-146.831	-61.1695	-78.155	-116.898	-45.7986	-73.3223	-159.582	-78.8174	-40.8864	-141.853	-75.2576	-60.7146	-114.182	-61.6331	-63.0427	-187.187	-57.9524	-3.99382	-184.706	-56.5473	28.0678	-193.11	-24.3479	7.00077	
